<svg width="24" height="24" viewBox="0 0 24 24" fill="none" xmlns="http://www.w3.org/2000/svg">
<g id="Frame">
<path id="Vector" d="M2.005 12.002C2.005 6.485 6.485 2.005 12.002 2.005C17.52 2.005 22 6.485 22 12.002C22 17.52 17.52 22 12.002 22C6.485 22 2.005 17.52 2.005 12.002ZM8.215 13.526C8.215 13.526 9.72001 15.027 11.474 16.78C11.621 16.927 11.812 17 12.004 17C12.196 17 12.388 16.927 12.535 16.78C14.288 15.028 15.793 13.526 15.793 13.526C15.938 13.381 16.01 13.191 16.009 13C16.009 12.808 15.935 12.616 15.789 12.47C15.496 12.177 15.023 12.175 14.732 12.466L12.754 14.443V7.75C12.754 7.336 12.418 7 12.004 7C11.59 7 11.254 7.336 11.254 7.75V14.443L9.276 12.465C8.987 12.176 8.514 12.178 8.221 12.471C8.075 12.618 8.001 12.81 8 13.001C7.999 13.192 8.071 13.381 8.215 13.526Z" fill="#666666"/>
</g>
</svg>
