<?xml version="1.0" encoding="UTF-8"?>
<svg width="30px" height="30px" viewBox="0 0 30 30" version="1.1" xmlns="http://www.w3.org/2000/svg" xmlns:xlink="http://www.w3.org/1999/xlink">
    <!-- Generator: Sketch 54.1 (76490) - https://sketchapp.com -->
    <title>f_logo_RGB-Blue_1024</title>
    <desc>Created with Sketch.</desc>
    <g id="f_logo_RGB-Blue_1024" stroke="none" stroke-width="1" fill="none" fill-rule="evenodd">
        <path d="M30,15 C30,6.71572266 23.2842773,0 15,0 C6.71572266,0 0,6.71572266 0,15 C0,22.4869336 5.4852832,28.6924805 12.65625,29.8177734 L12.65625,19.3359375 L8.84765625,19.3359375 L8.84765625,15 L12.65625,15 L12.65625,11.6953125 C12.65625,7.9359375 14.8956445,5.859375 18.3219727,5.859375 C19.9630957,5.859375 21.6796875,6.15234375 21.6796875,6.15234375 L21.6796875,9.84375 L19.7882227,9.84375 C17.9248535,9.84375 17.34375,11.0000098 17.34375,12.1862402 L17.34375,15 L21.5039062,15 L20.8388672,19.3359375 L17.34375,19.3359375 L17.34375,29.8177734 C24.5147168,28.6924805 30,22.4869336 30,15" id="Fill-1" fill="#4468A3"></path>
    </g>
</svg>