<svg width="64" height="64" viewBox="0 0 64 64" fill="none" xmlns="http://www.w3.org/2000/svg">
<g id="Frame">
<path id="Vector" d="M46.6693 34.6667C53.5493 34.6667 58.6667 40.2853 58.6667 46.664C58.6667 53.544 53.0533 58.6613 46.6693 58.6613C39.7733 58.6613 34.6693 53.0293 34.6693 46.664C34.6693 40.248 39.8267 34.6667 46.6693 34.6667ZM34 55.9973H10.6667C9.38667 55.9973 8 54.9867 8 53.3307V10.664C8 9.38133 9.01333 7.99733 10.6667 7.99733H53.3333C54.9893 7.99733 56 9.38933 56 10.664V34.0053C54.7867 33.1093 53.4427 32.384 52 31.864V21.3307H12V51.9973H31.8587C32.3787 53.44 33.104 54.784 34 55.9973ZM48.0027 45.3307V41.3307C48.0027 40.624 47.376 39.9973 46.6693 39.9973C45.96 39.9973 45.336 40.624 45.336 41.3307V45.3307H41.336C40.6267 45.3307 40.0027 45.9573 40.0027 46.664C40.0027 47.3707 40.6267 47.9973 41.336 47.9973H45.336V51.9973C45.336 52.704 45.96 53.3307 46.6693 53.3307C47.376 53.3307 48.0027 52.704 48.0027 51.9973V47.9973H52C52.7093 47.9973 53.3333 47.3707 53.3333 46.664C53.3333 45.9573 52.7093 45.3307 52 45.3307H48.0027Z" fill="#70C994"/>
</g>
</svg>
