<svg width="64" height="64" viewBox="0 0 64 64" fill="none" xmlns="http://www.w3.org/2000/svg">
<g id="Frame">
<path id="Vector" d="M53.3334 53.328H12.6667C11.5627 53.328 10.6667 54.224 10.6667 55.328C10.6667 56.432 11.5627 57.328 12.6667 57.328H54.6667C56.08 57.328 57.3334 56.0773 57.3334 54.6613V12.6613C57.3334 11.5573 56.4374 10.6613 55.3334 10.6613C54.2294 10.6613 53.3334 11.5573 53.3334 12.6613V53.328ZM50.6667 7.99467C50.6667 6.72 49.656 5.328 48 5.328H8.00004C6.34671 5.328 5.33337 6.712 5.33337 7.99467V47.9947C5.33337 49.6507 6.72004 50.6613 8.00004 50.6613H48C49.2747 50.6613 50.6667 49.6507 50.6667 47.9947V7.99467ZM46.6667 18.6613V46.6613H9.33337V18.6613H46.6667Z" fill="#107B0E"/>
</g>
</svg>
