<svg width="64" height="64" viewBox="0 0 64 64" fill="none" xmlns="http://www.w3.org/2000/svg">
<path d="M53.3333 53.3279H12.6666C11.5626 53.3279 10.6666 54.2239 10.6666 55.3279C10.6666 56.4319 11.5626 57.3279 12.6666 57.3279H54.6666C56.08 57.3279 57.3333 56.0772 57.3333 54.6612V12.6612C57.3333 11.5572 56.4373 10.6612 55.3333 10.6612C54.2293 10.6612 53.3333 11.5572 53.3333 12.6612V53.3279ZM50.6666 7.99455C50.6666 6.71988 49.656 5.32788 48 5.32788H7.99998C6.34665 5.32788 5.33331 6.71188 5.33331 7.99455V47.9945C5.33331 49.6505 6.71998 50.6612 7.99998 50.6612H48C49.2746 50.6612 50.6666 49.6505 50.6666 47.9945V7.99455ZM46.6666 18.6612V46.6612H9.33331V18.6612H46.6666Z" fill="currentColor"/>
</svg>