<svg width="48" height="48" viewBox="0 0 48 48" fill="none" xmlns="http://www.w3.org/2000/svg">
<rect width="48" height="48" rx="20" fill="#F4F4F4"/>
<path d="M27.344 29.778C27.344 29.364 27.008 29.028 26.594 29.028H21.434C21.02 29.028 20.684 29.364 20.684 29.778C20.684 30.192 21.02 30.528 21.434 30.528H26.594C27.008 30.528 27.344 30.192 27.344 29.778ZM29.55 25.778C29.55 25.364 29.214 25.028 28.8 25.028H19.204C18.79 25.028 18.454 25.364 18.454 25.778C18.454 26.192 18.79 26.528 19.204 26.528H28.8C29.214 26.528 29.55 26.192 29.55 25.778ZM32 21.778C32 21.364 31.664 21.028 31.25 21.028H16.75C16.336 21.028 16 21.364 16 21.778C16 22.192 16.336 22.528 16.75 22.528H31.25C31.664 22.528 32 22.192 32 21.778ZM34 17.778C34 17.364 33.664 17.028 33.25 17.028H14.75C14.336 17.028 14 17.364 14 17.778C14 18.192 14.336 18.528 14.75 18.528H33.25C33.664 18.528 34 18.192 34 17.778Z" fill="black"/>
</svg>
