<svg width="24" height="24" viewBox="0 0 24 24" fill="none" xmlns="http://www.w3.org/2000/svg">
<g id="Frame">
<path id="Vector" d="M21 3.99799C21 3.51999 20.621 2.99799 20 2.99799H4C3.38 2.99799 3 3.51699 3 3.99799V19.998C3 20.619 3.52 20.998 4 20.998H20C20.478 20.998 21 20.619 21 19.998V3.99799ZM12.009 10.93L14.726 8.21199C14.872 8.06599 15.064 7.99299 15.256 7.99299C15.661 7.99299 16.007 8.31799 16.007 8.74299C16.007 8.93599 15.934 9.12699 15.788 9.27399L13.07 11.991L15.798 14.719C15.945 14.866 16.018 15.058 16.018 15.25C16.018 15.677 15.669 16 15.268 16C15.076 16 14.884 15.927 14.737 15.781L12.009 13.053L9.281 15.781C9.135 15.927 8.942 16 8.75 16C8.349 16 8 15.677 8 15.25C8 15.058 8.073 14.866 8.22 14.719L10.948 11.991L8.226 9.26899C8.08 9.12199 8.007 8.93099 8.007 8.73799C8.007 8.31299 8.353 7.98899 8.757 7.98899C8.949 7.98899 9.141 8.06199 9.287 8.20799L12.009 10.93Z" fill="#333333"/>
</g>
</svg>
