<svg width="64" height="64" viewBox="0 0 64 64" fill="none" xmlns="http://www.w3.org/2000/svg">
<g id="Frame">
<path id="Vector" d="M29.966 5.24674C30.344 4.48337 31.136 4 32 4C32.867 4 33.656 4.48337 34.034 5.24674C36.956 11.1356 41.984 21.2804 41.984 21.2804C41.984 21.2804 53.417 22.8248 60.05 23.7238C61.259 23.8859 62 24.8909 62 25.9255C62 26.4855 61.784 27.0543 61.307 27.5053C56.477 32.0383 48.161 39.8577 48.161 39.8577C48.161 39.8577 50.192 50.9604 51.368 57.4004C51.617 58.7621 50.543 60 49.142 60C48.776 60 48.41 59.9145 48.077 59.7377C42.173 56.6488 32 51.3347 32 51.3347C32 51.3347 21.827 56.6488 15.923 59.7377C15.59 59.9145 15.221 60 14.855 60C13.46 60 12.38 58.7592 12.632 57.4004C13.811 50.9604 15.842 39.8577 15.842 39.8577C15.842 39.8577 7.523 32.0383 2.696 27.5053C2.216 27.0543 2 26.4855 2 25.9284C2 24.8909 2.747 23.8829 3.953 23.7238C10.586 22.8248 22.016 21.2804 22.016 21.2804C22.016 21.2804 27.047 11.1356 29.966 5.24674ZM32 11.2387L24.917 25.3625L9.179 27.4817L20.723 38.2189L17.879 53.7074L32 46.3242L46.121 53.7074L43.268 38.2749L54.821 27.4817L38.879 25.2535L32 11.2387Z" fill="#70C994"/>
</g>
</svg>
